<svg xmlns="http://www.w3.org/2000/svg" width="131.453" height="38.553" viewBox="0 0 131.453 38.553"><g transform="translate(-51.959 -57.959)"><path d="M125.73,216.542l10.458,10.468,10.478-10.468v20.936H125.73Z" transform="translate(-25.824 -149.686)" fill="#fff"/><path d="M184.232,216.61h0a10.434,10.434,0,0,1,10.434,10.434h0a10.434,10.434,0,0,1-10.434,10.434h0A10.434,10.434,0,0,1,173.8,227.044h0A10.434,10.434,0,0,1,184.232,216.61Z" transform="translate(-50.009 -149.72)" fill="#fff"/><path d="M262.232,216.61h0a10.434,10.434,0,0,1,10.434,10.434h0a10.434,10.434,0,0,1-10.434,10.434h0A10.434,10.434,0,0,1,251.8,227.044h0A10.434,10.434,0,0,1,262.232,216.61Z" transform="translate(-89.254 -149.72)" fill="#fff"/><path d="M225.76,216.61v14.873c-2.992-.01-5.983-.009-5.962.032a5.962,5.962,0,0,0,11.925,0V216.61Z" transform="translate(-73.153 -149.72)" fill="#fff"/><g transform="translate(51.959 57.959)"><path d="M40.548,22.677h0A19.277,19.277,0,0,1,59.824,41.954h0A19.276,19.276,0,0,1,40.548,61.23h0A19.277,19.277,0,0,1,21.271,41.954h0A19.277,19.277,0,0,1,40.548,22.677Z" transform="translate(-21.271 -22.677)" fill="#e4004c"/><g transform="translate(11.448 11.448)"><path d="M8,0l8,8H0Z" transform="translate(-0.407 7.552)" fill="#fff"/><path d="M8,0l8,8H0Z" transform="translate(7.593 -0.447) rotate(90)" fill="#fff"/><path d="M8,0l8,8H0Z" transform="translate(7.593 15.553) rotate(-90)" fill="#fff" opacity="0.7"/></g><path d="M0,0,15.685,15.685H0Z" transform="translate(11.514 11.514)" fill="#fff"/></g></g></svg>